<svg fill="#646464" version="1.0" xmlns="http://www.w3.org/2000/svg" width="1706.667" height="716" viewBox="0 0 1280 537"><path fill="#646464" d="M237 104.6c-27.9 4.3-57.5 16.7-78 32.8l-6.3 4.8 12 12 11.9 11.9 8-5.4c14-9.6 28.6-16.3 44.3-20.2 70.5-17.6 142 21.9 164.6 90.9 5.3 16.2 6.8 28 6.2 47.4-.4 14.3-.9 18.4-3.5 28.2-1.6 6.3-4.1 14.2-5.5 17.5l-2.6 6 12.2 12.3c6.7 6.7 12.6 12.1 13.2 11.9.5-.2 3.1-5 5.7-10.8 20-44.6 19.6-97.6-1.1-142.3-15.7-34-46.6-65.3-80.5-81.6-12.8-6.1-28-11.2-42.1-14.1-14.4-2.8-44.3-3.6-58.5-1.3z"/><path fill="#646464" d="M242.6 160.5C182 172 141 226.8 147.9 286.9c6.1 51.9 45.4 92.8 97.3 101.1 5.1.8 12.9 1.1 22.5.7 18.2-.7 28.8-3.3 44.8-11.1 64.3-31.2 85.1-112.3 43.7-170.6-6.2-8.7-18.1-20.5-27.1-26.8-4.1-2.9-7.5-5.1-7.6-5-.2.2-3.1 7.2-6.5 15.6l-6.2 15.3 2.3 1.7c13.7 9.4 25.9 27.5 31 45.7 3.4 11.9 3.2 30.6-.5 42.8-4.3 14.3-9.6 23.5-19.5 34.1-15.9 16.8-36.4 25.6-59.6 25.6-22.8 0-41.6-7.9-58-24.4-10-10.1-15.8-19.3-19.9-31.6-14.7-44.6 10.6-92 56.1-105.2 6.6-1.9 10.2-2.3 22.9-2.3h15.1l5.7-14c3.1-7.7 5.6-14.6 5.6-15.2 0-3.4-33.4-5.4-47.4-2.8z"/><path fill="#646464" d="M125.3 171.2C111.2 190 99.1 216.6 94.6 239c-7.1 35.6-2.9 73.5 11.7 105.5 15 32.8 38.5 59.1 68.3 76.7 4.7 2.8 8.9 4.6 9.4 4.2.8-1 12-28.5 12-29.5 0-.4-4.6-3.8-10.2-7.5-28.1-18.6-49.6-49.2-57.3-81.6-9.1-38.3-2.6-75.1 19.2-108.7l5.5-8.4-11.9-11.9-12-11.9-4 5.3zm768.7 7.2c-7.6 1.7-12.3 4.1-18.4 9.6-16.2 14.9-14.7 40.2 3 53.9 7 5.4 13.6 7.4 23.9 7.5 7.8 0 9.8-.4 14.9-2.7 3.3-1.5 8-4.4 10.4-6.4l4.5-3.7-6.3-5.7-6.3-5.8-4.1 2.9c-13.7 9.7-31.6 1.6-31.6-14.3 0-11.4 7.7-19 19.2-19 4.7 0 6.7.5 10.8 3.1 2.8 1.8 5.4 3.2 5.8 3.2s3.4-2.4 6.6-5.3l5.9-5.3-4.4-3.6c-5.7-4.6-11.1-7.3-17.7-8.7-6.4-1.3-9.1-1.3-16.2.3zm-369.8.8c-.5.7-2.3 4.7-3.9 8.8-1.7 4.1-7.8 19.2-13.6 33.6-5.9 14.3-10.7 26.4-10.7 26.7 0 .4 4.4.7 9.9.7h9.8l1.7-4.5 1.8-4.5h27.5l1.7 4.5 1.8 4.5h9.9c6 0 9.9-.4 9.9-1s-5.1-13.5-11.4-28.8c-6.3-15.2-12.6-30.7-14.1-34.5l-2.7-6.7h-8.3c-5.4 0-8.6.4-9.3 1.2zm13.2 35.1c2 5.1 3.6 9.6 3.6 10s-3.6.7-8 .7-8-.3-8-.7c0-1.9 7.5-20.1 8.1-19.7.4.2 2.3 4.6 4.3 9.7zm39.6-.8V249h15.8c24.6 0 33.4-2.3 41.3-10.7 6.4-6.7 8.2-11.5 8.7-22.8.5-12-1.6-18.7-7.9-25.8-7.9-9-17.6-11.7-42.6-11.7H577v35.5zm39.1-14.8c5.1 2.9 7.2 6.6 7.7 13.1.3 4.5-.1 7-1.6 10.5-2.9 6.6-5.7 8-16.8 8.5l-9.4.4v-16.9c0-9.3.3-17.3.8-17.7 1.3-1.5 16 .1 19.3 2.1zm31.6-20c-.2.4 3.8 11.1 9 23.8 5.2 12.6 11.6 28.2 14.2 34.5l4.7 11.5h17.6l5.3-13c2.9-7.2 9.1-22.6 13.9-34.3 4.7-11.7 8.6-21.7 8.6-22.2 0-1.5-18.5-1.3-19.7.2-.6.7-4.5 10.3-8.8 21.3-6.1 15.5-8.1 19.6-8.8 18.3-.6-.9-4.5-10.3-8.7-20.9l-7.5-19.4-9.7-.3c-5.3-.1-9.8.1-10.1.5zm89.4 1.5c-.5 1.3-6.8 16.6-14 34.2-7.2 17.5-13.1 32.5-13.1 33.2 0 1.1 2.1 1.4 9.8 1.4h9.8l1.5-4.3 1.6-4.2 13.9-.3 14-.3 1.5 4.3 1.6 4.3 10.1.3c5.6.1 10.2-.1 10.1-.5 0-.4-6.4-16.3-14.2-35.3l-14.2-34.5-8.8-.3c-8.3-.3-8.8-.2-9.6 2zm14.3 34.3c1.9 4.9 3.2 9.3 3 9.7-.8 1.2-15.4 1-15.4-.2 0-2.4 7.4-20 8.1-19.3.4.4 2.4 4.8 4.3 9.8zm39.1-35.2c-.3.6-.4 16.5-.3 35.2l.3 34 9.2.3 9.3.3.2-19.6.3-19.5 8.5 10.7c4.7 6 11.6 14.8 15.3 19.6l6.8 8.8 7.7-.3 7.7-.3v-70h-18l-.3 17.7c-.1 9.8-.6 17.8-1 17.8-.4-.1-6.9-8.2-14.6-18l-13.9-18h-8.4c-5.8 0-8.5.4-8.8 1.3zm149-.1c-.3.7-.4 16.6-.3 35.3l.3 34 26.3.3 26.2.2v-17l-16.7-.2-16.8-.3-.3-5.3-.3-5.2h31.2l-.3-7.8-.3-7.7-15.3-.3-15.3-.3.3-4.7.3-4.7 14.5-.2c8-.1 15.3-.2 16.3-.2 1.6-.1 1.7-1 1.5-8.4l-.3-8.2-25.3-.3c-19.7-.2-25.4 0-25.7 1zm-685 35.9c-13.6 1.8-26 8.3-35.3 18.4-14 15.3-19.2 35.4-14.3 54.7 3 11.7 7.3 19.3 16 27.9 11.7 11.7 25.1 17.3 41.6 17.3 25.5 0 46.9-15.2 56.3-40.2 2.2-5.8 2.6-8.4 2.6-18.7.1-13.5-1.1-18.4-7.2-29.5-11.5-20.9-35.9-33.1-59.7-29.9zm20 36c15 7.5 18.6 28.3 7.2 40.7-1.2 1.3-4.2 3.6-6.7 5-3.9 2.3-5.6 2.7-12.5 2.7s-8.6-.4-12.6-2.7c-14.2-8.4-17.7-25.2-7.9-38.6 2.8-3.9 8-7.4 14-9.3 4.2-1.4 13.5-.3 18.5 2.2zm391.7 48.4c-7.6 1.7-13.2 4.8-19.1 10.6-11.5 11.5-13.3 31.1-4 44.5 13.4 19.5 44.6 21.8 60.3 4.3l3.6-3.9v-28h-35v16h18.1l-.3 2.7c-.6 5.6-10.9 9.4-19.1 7.2-8.9-2.3-14.1-9.2-14-18.5.1-6 2-10 6.7-14.2 6-5.3 17.5-5.7 24.3-.9l3.6 2.6 6.1-5.2c3.4-2.8 6.3-5.3 6.6-5.5.8-.7-6.2-6.2-11.1-8.7-4.1-2.1-14.8-4.6-18.9-4.4-.8 0-4.4.7-7.8 1.4zm488.1-.4c-11.1 1.9-21.4 9.2-26.8 19.1-2.8 5-3 6-3 16.3 0 13 1.6 17.2 9.2 24.8 15.2 15.2 40.7 15.2 55.8.2l3.5-3.6V327l-17.2.2-17.3.3v15l9 .5c7.5.4 9 .8 9.3 2.2.8 4.4-11.4 9.9-18.4 8.2-9.4-2.1-15.4-9.5-15.4-18.8 0-10.8 8-18.6 19.2-18.6 5.2 0 12.9 2.7 14.2 4.9.5.7 2.9-.5 6.7-3.6 3.3-2.6 6.3-5.1 6.6-5.7 1-1.6-7.4-8.4-13-10.4-6.5-2.5-15.6-3.3-22.4-2.1zM501 334.5V370h52v-17h-33v-11h30v-16h-30v-9h33.1l-.3-8.8-.3-8.7-25.7-.3-25.8-.2v35.5zm62.5-34.2c-.3.6-.4 16.5-.3 35.2l.3 34h18l.5-18.9.5-18.9 12 15.3c19.3 24.6 17.4 23 26.1 23h7.4v-71.1l-8.7.3-8.8.3-.5 18.5-.5 18.5-9-11.5c-5-6.3-11.3-14.4-14-18s-5.4-6.8-6-7.2c-1.8-1.3-16.5-.9-17 .5zm153-.1c-.3.7-.4 16.6-.3 35.3l.3 34 9.8.3 9.7.3-.2-35.3-.3-35.3-9.3-.3c-6.8-.2-9.4.1-9.7 1zm31.5 34.3V370h18v-19.2c0-18 .1-19.1 1.7-17.6.9 1 7.8 9.5 15.3 19l13.6 17.3 8.2.3 8.2.3-.2-35.3-.3-35.3-9.2-.3-9.3-.3-.2 18.7-.3 18.7-13.3-17.2c-7.4-9.4-14-17.8-14.8-18.6-1.1-1.1-3.8-1.5-9.5-1.5H748v35.5zm76.5-34.2c-.3.6-.4 16.5-.3 35.2l.3 34 26.3.3 26.2.2v-17l-16.7-.2-16.8-.3v-10l15.3-.3 15.2-.3V326h-31v-9h33v-18h-25.5c-19.6 0-25.7.3-26 1.3zm62.5 34.2V370l26.3-.2 26.2-.3v-16l-16.7-.3-16.8-.2v-11h30v-16h-30v-9l16.3-.2 16.2-.3v-17l-25.7-.3-25.8-.2v35.5zm62.8-34.9c-.5.4-.8 16.4-.8 35.6v34.9l9.8-.3 9.7-.3.3-10.8.3-10.7h3.3c3.1 0 3.8.7 10.6 11l7.3 11h10.3c5.7 0 10.4-.4 10.4-.9s-3.6-6.4-8.1-13.1-7.9-12.2-7.8-12.4c.2-.1 1.8-1.2 3.6-2.4 4.7-3.3 7.5-10 7.5-17.6-.1-7.3-2.2-12.3-7.4-17.3-6.1-5.9-9.3-6.7-29.8-7.1-10.2-.2-18.8 0-19.2.4zm35.3 19.3c3.1 2.5 3.2 8.3.1 11.3-1.7 1.8-3.7 2.3-9.2 2.6l-7 .4V317h6.9c5.2 0 7.4.4 9.2 1.9zm33.4-18.7c-.3.7-.4 16.6-.3 35.3l.3 34 9.8.3 9.7.3-.2-35.3-.3-35.3-9.3-.3c-6.8-.2-9.4.1-9.7 1zm31.5 34.3V370h18v-19.2c0-22.7-2.1-23 17.3 1.7l13.4 17h15.8v-70h-18l-.5 18.4-.5 18.4-13.2-17c-7.2-9.3-13.9-17.7-14.8-18.6-1.2-1.3-3.5-1.7-9.6-1.7h-7.9v35.5zm-690 36.4c-19.8 20.2-44 33.2-72 38.8-12.2 2.5-38.4 2.4-50.8-.1-5.4-1.1-9.7-1.5-10.2-1-.9.9-12 28.3-12 29.5 0 .4 3.9 1.6 8.8 2.8 37.5 8.7 77.8 4.3 113-12.4 9.2-4.4 31.3-18.3 32.8-20.6.4-.7 8.4 6.6 19.5 17.7l18.9 18.9 11.7-11.8 11.8-11.7-30.5-30.4-30.5-30.3-10.5 10.6z"/></svg>